<mxfile host="app.diagrams.net" modified="2023-06-13T18:49:52.149Z" agent="Mozilla/5.0 (Windows NT 10.0; Win64; x64) AppleWebKit/537.36 (KHTML, like Gecko) Chrome/114.0.0.0 Safari/537.36" etag="F0yopNV4R0z2LS5tYVyS" version="21.3.8" type="github">
  <diagram name="Страница 1" id="ZFtJHWTA5v8sUb_Jr4MP">
    <mxGraphModel dx="2223" dy="1302" grid="1" gridSize="10" guides="1" tooltips="1" connect="1" arrows="1" fold="1" page="1" pageScale="1" pageWidth="827" pageHeight="1169" background="none" math="0" shadow="0">
      <root>
        <mxCell id="0" />
        <mxCell id="1" parent="0" />
        <mxCell id="mhw9WGVYpKG5qw8w--Cm-78" value="&lt;font style=&quot;font-size: 17px;&quot;&gt;view&lt;/font&gt;" style="rounded=0;whiteSpace=wrap;html=1;" vertex="1" parent="1">
          <mxGeometry x="-185" y="560" width="1170" height="295" as="geometry" />
        </mxCell>
        <mxCell id="mhw9WGVYpKG5qw8w--Cm-23" value="" style="edgeStyle=elbowEdgeStyle;elbow=vertical;sourcePerimeterSpacing=0;targetPerimeterSpacing=0;startArrow=none;endArrow=none;rounded=0;curved=0;" edge="1" parent="1" source="mhw9WGVYpKG5qw8w--Cm-25" target="mhw9WGVYpKG5qw8w--Cm-26">
          <mxGeometry relative="1" as="geometry">
            <Array as="points">
              <mxPoint x="250" y="440" />
            </Array>
          </mxGeometry>
        </mxCell>
        <mxCell id="mhw9WGVYpKG5qw8w--Cm-24" value="" style="edgeStyle=elbowEdgeStyle;elbow=vertical;sourcePerimeterSpacing=0;targetPerimeterSpacing=0;startArrow=none;endArrow=none;rounded=0;curved=0;" edge="1" parent="1" source="mhw9WGVYpKG5qw8w--Cm-25" target="mhw9WGVYpKG5qw8w--Cm-27">
          <mxGeometry relative="1" as="geometry">
            <Array as="points">
              <mxPoint x="570" y="440" />
            </Array>
          </mxGeometry>
        </mxCell>
        <UserObject label="model&lt;br&gt;" treeRoot="1" id="mhw9WGVYpKG5qw8w--Cm-25">
          <mxCell style="whiteSpace=wrap;html=1;align=center;treeFolding=1;treeMoving=1;newEdgeStyle={&quot;edgeStyle&quot;:&quot;elbowEdgeStyle&quot;,&quot;startArrow&quot;:&quot;none&quot;,&quot;endArrow&quot;:&quot;none&quot;};" vertex="1" parent="1">
            <mxGeometry x="340" y="260" width="120" height="60" as="geometry" />
          </mxCell>
        </UserObject>
        <mxCell id="mhw9WGVYpKG5qw8w--Cm-26" value="input&lt;br&gt;costIput" style="whiteSpace=wrap;html=1;align=center;verticalAlign=middle;treeFolding=1;treeMoving=1;newEdgeStyle={&quot;edgeStyle&quot;:&quot;elbowEdgeStyle&quot;,&quot;startArrow&quot;:&quot;none&quot;,&quot;endArrow&quot;:&quot;none&quot;};" vertex="1" parent="1">
          <mxGeometry x="70" y="630" width="100" height="60" as="geometry" />
        </mxCell>
        <mxCell id="mhw9WGVYpKG5qw8w--Cm-27" value="slider&lt;br&gt;paymentRange" style="whiteSpace=wrap;html=1;align=center;verticalAlign=middle;treeFolding=1;treeMoving=1;newEdgeStyle={&quot;edgeStyle&quot;:&quot;elbowEdgeStyle&quot;,&quot;startArrow&quot;:&quot;none&quot;,&quot;endArrow&quot;:&quot;none&quot;};" vertex="1" parent="1">
          <mxGeometry x="630" y="630" width="100" height="60" as="geometry" />
        </mxCell>
        <mxCell id="mhw9WGVYpKG5qw8w--Cm-28" value="controller&lt;br&gt;" style="rounded=0;whiteSpace=wrap;html=1;" vertex="1" parent="1">
          <mxGeometry x="340" y="410" width="120" height="60" as="geometry" />
        </mxCell>
        <mxCell id="mhw9WGVYpKG5qw8w--Cm-32" style="edgeStyle=elbowEdgeStyle;rounded=0;orthogonalLoop=1;jettySize=auto;html=1;startArrow=none;endArrow=none;entryX=0;entryY=0.75;entryDx=0;entryDy=0;" edge="1" parent="1" source="mhw9WGVYpKG5qw8w--Cm-29" target="mhw9WGVYpKG5qw8w--Cm-28">
          <mxGeometry relative="1" as="geometry">
            <Array as="points">
              <mxPoint x="280" y="510" />
              <mxPoint x="315" y="480" />
            </Array>
          </mxGeometry>
        </mxCell>
        <mxCell id="mhw9WGVYpKG5qw8w--Cm-29" value="slider&lt;br&gt;costRange" style="whiteSpace=wrap;html=1;align=center;verticalAlign=middle;treeFolding=1;treeMoving=1;newEdgeStyle={&quot;edgeStyle&quot;:&quot;elbowEdgeStyle&quot;,&quot;startArrow&quot;:&quot;none&quot;,&quot;endArrow&quot;:&quot;none&quot;};" vertex="1" parent="1">
          <mxGeometry x="200" y="630" width="100" height="60" as="geometry" />
        </mxCell>
        <mxCell id="mhw9WGVYpKG5qw8w--Cm-31" style="edgeStyle=elbowEdgeStyle;rounded=0;orthogonalLoop=1;jettySize=auto;html=1;startArrow=none;endArrow=none;entryX=1;entryY=0.75;entryDx=0;entryDy=0;exitX=0.25;exitY=0;exitDx=0;exitDy=0;" edge="1" parent="1" source="mhw9WGVYpKG5qw8w--Cm-30" target="mhw9WGVYpKG5qw8w--Cm-28">
          <mxGeometry relative="1" as="geometry">
            <Array as="points">
              <mxPoint x="520" y="540" />
            </Array>
          </mxGeometry>
        </mxCell>
        <mxCell id="mhw9WGVYpKG5qw8w--Cm-30" value="input&lt;br&gt;paymentInput" style="whiteSpace=wrap;html=1;align=center;verticalAlign=middle;treeFolding=1;treeMoving=1;newEdgeStyle={&quot;edgeStyle&quot;:&quot;elbowEdgeStyle&quot;,&quot;startArrow&quot;:&quot;none&quot;,&quot;endArrow&quot;:&quot;none&quot;};gradientColor=none;rounded=0;glass=0;shadow=0;" vertex="1" parent="1">
          <mxGeometry x="500" y="630" width="100" height="60" as="geometry" />
        </mxCell>
        <mxCell id="mhw9WGVYpKG5qw8w--Cm-33" style="edgeStyle=elbowEdgeStyle;rounded=0;orthogonalLoop=1;jettySize=auto;html=1;startArrow=none;endArrow=none;entryX=1;entryY=0.5;entryDx=0;entryDy=0;" edge="1" parent="1" source="mhw9WGVYpKG5qw8w--Cm-26" target="mhw9WGVYpKG5qw8w--Cm-26">
          <mxGeometry relative="1" as="geometry" />
        </mxCell>
        <mxCell id="mhw9WGVYpKG5qw8w--Cm-41" style="edgeStyle=orthogonalEdgeStyle;rounded=0;orthogonalLoop=1;jettySize=auto;html=1;entryX=0.5;entryY=1;entryDx=0;entryDy=0;" edge="1" parent="1" source="mhw9WGVYpKG5qw8w--Cm-40" target="mhw9WGVYpKG5qw8w--Cm-28">
          <mxGeometry relative="1" as="geometry" />
        </mxCell>
        <mxCell id="mhw9WGVYpKG5qw8w--Cm-40" value="инициализация программы" style="text;html=1;strokeColor=none;fillColor=none;align=center;verticalAlign=middle;whiteSpace=wrap;rounded=0;" vertex="1" parent="1">
          <mxGeometry x="370" y="500" width="60" height="30" as="geometry" />
        </mxCell>
        <mxCell id="mhw9WGVYpKG5qw8w--Cm-43" style="edgeStyle=orthogonalEdgeStyle;rounded=0;orthogonalLoop=1;jettySize=auto;html=1;entryX=0.5;entryY=0;entryDx=0;entryDy=0;" edge="1" parent="1" source="mhw9WGVYpKG5qw8w--Cm-42" target="mhw9WGVYpKG5qw8w--Cm-25">
          <mxGeometry relative="1" as="geometry" />
        </mxCell>
        <mxCell id="mhw9WGVYpKG5qw8w--Cm-42" value="содержит основные значения" style="text;html=1;strokeColor=none;fillColor=none;align=center;verticalAlign=middle;whiteSpace=wrap;rounded=0;" vertex="1" parent="1">
          <mxGeometry x="340" y="180" width="120" height="50" as="geometry" />
        </mxCell>
        <mxCell id="mhw9WGVYpKG5qw8w--Cm-49" style="edgeStyle=elbowEdgeStyle;rounded=0;orthogonalLoop=1;jettySize=auto;html=1;startArrow=none;endArrow=none;entryX=0;entryY=0;entryDx=0;entryDy=0;" edge="1" parent="1" source="mhw9WGVYpKG5qw8w--Cm-44" target="mhw9WGVYpKG5qw8w--Cm-28">
          <mxGeometry relative="1" as="geometry">
            <Array as="points">
              <mxPoint x="40" y="500" />
              <mxPoint x="30" y="540" />
              <mxPoint x="300" y="410" />
              <mxPoint x="50" y="460" />
              <mxPoint x="280" y="640" />
              <mxPoint x="50" y="500" />
            </Array>
          </mxGeometry>
        </mxCell>
        <mxCell id="mhw9WGVYpKG5qw8w--Cm-44" value="input&lt;br&gt;costIput" style="whiteSpace=wrap;html=1;align=center;verticalAlign=middle;treeFolding=1;treeMoving=1;newEdgeStyle={&quot;edgeStyle&quot;:&quot;elbowEdgeStyle&quot;,&quot;startArrow&quot;:&quot;none&quot;,&quot;endArrow&quot;:&quot;none&quot;};" vertex="1" parent="1">
          <mxGeometry x="70" y="730" width="100" height="60" as="geometry" />
        </mxCell>
        <mxCell id="mhw9WGVYpKG5qw8w--Cm-50" style="edgeStyle=elbowEdgeStyle;rounded=0;orthogonalLoop=1;jettySize=auto;html=1;startArrow=none;endArrow=none;entryX=1;entryY=0;entryDx=0;entryDy=0;" edge="1" parent="1" source="mhw9WGVYpKG5qw8w--Cm-45" target="mhw9WGVYpKG5qw8w--Cm-28">
          <mxGeometry relative="1" as="geometry">
            <Array as="points">
              <mxPoint x="760" y="520" />
              <mxPoint x="760" y="480" />
            </Array>
          </mxGeometry>
        </mxCell>
        <mxCell id="mhw9WGVYpKG5qw8w--Cm-45" value="slider&lt;br&gt;paymentRange" style="whiteSpace=wrap;html=1;align=center;verticalAlign=middle;treeFolding=1;treeMoving=1;newEdgeStyle={&quot;edgeStyle&quot;:&quot;elbowEdgeStyle&quot;,&quot;startArrow&quot;:&quot;none&quot;,&quot;endArrow&quot;:&quot;none&quot;};" vertex="1" parent="1">
          <mxGeometry x="630" y="730" width="100" height="60" as="geometry" />
        </mxCell>
        <mxCell id="mhw9WGVYpKG5qw8w--Cm-55" style="edgeStyle=elbowEdgeStyle;rounded=0;orthogonalLoop=1;jettySize=auto;html=1;startArrow=none;endArrow=none;entryX=0.25;entryY=1;entryDx=0;entryDy=0;" edge="1" parent="1" source="mhw9WGVYpKG5qw8w--Cm-46" target="mhw9WGVYpKG5qw8w--Cm-28">
          <mxGeometry relative="1" as="geometry">
            <mxPoint x="370" y="610" as="targetPoint" />
            <Array as="points">
              <mxPoint x="350" y="580" />
              <mxPoint x="370" y="640" />
            </Array>
          </mxGeometry>
        </mxCell>
        <mxCell id="mhw9WGVYpKG5qw8w--Cm-46" value="slider&lt;br&gt;costRange" style="whiteSpace=wrap;html=1;align=center;verticalAlign=middle;treeFolding=1;treeMoving=1;newEdgeStyle={&quot;edgeStyle&quot;:&quot;elbowEdgeStyle&quot;,&quot;startArrow&quot;:&quot;none&quot;,&quot;endArrow&quot;:&quot;none&quot;};" vertex="1" parent="1">
          <mxGeometry x="200" y="730" width="100" height="60" as="geometry" />
        </mxCell>
        <mxCell id="mhw9WGVYpKG5qw8w--Cm-56" style="edgeStyle=elbowEdgeStyle;rounded=0;orthogonalLoop=1;jettySize=auto;html=1;startArrow=none;endArrow=none;entryX=0.75;entryY=1;entryDx=0;entryDy=0;" edge="1" parent="1" source="mhw9WGVYpKG5qw8w--Cm-47" target="mhw9WGVYpKG5qw8w--Cm-28">
          <mxGeometry relative="1" as="geometry">
            <Array as="points">
              <mxPoint x="450" y="570" />
            </Array>
          </mxGeometry>
        </mxCell>
        <mxCell id="mhw9WGVYpKG5qw8w--Cm-47" value="input&lt;br&gt;paymentInput" style="whiteSpace=wrap;html=1;align=center;verticalAlign=middle;treeFolding=1;treeMoving=1;newEdgeStyle={&quot;edgeStyle&quot;:&quot;elbowEdgeStyle&quot;,&quot;startArrow&quot;:&quot;none&quot;,&quot;endArrow&quot;:&quot;none&quot;};" vertex="1" parent="1">
          <mxGeometry x="500" y="730" width="100" height="60" as="geometry" />
        </mxCell>
        <mxCell id="mhw9WGVYpKG5qw8w--Cm-48" style="edgeStyle=elbowEdgeStyle;rounded=0;orthogonalLoop=1;jettySize=auto;html=1;startArrow=none;endArrow=none;entryX=1;entryY=0.5;entryDx=0;entryDy=0;" edge="1" parent="1" source="mhw9WGVYpKG5qw8w--Cm-44" target="mhw9WGVYpKG5qw8w--Cm-44">
          <mxGeometry relative="1" as="geometry" />
        </mxCell>
        <mxCell id="mhw9WGVYpKG5qw8w--Cm-59" style="edgeStyle=orthogonalEdgeStyle;rounded=0;orthogonalLoop=1;jettySize=auto;html=1;entryX=0.25;entryY=0;entryDx=0;entryDy=0;" edge="1" parent="1" source="mhw9WGVYpKG5qw8w--Cm-58" target="mhw9WGVYpKG5qw8w--Cm-28">
          <mxGeometry relative="1" as="geometry">
            <Array as="points">
              <mxPoint x="370" y="350" />
            </Array>
          </mxGeometry>
        </mxCell>
        <mxCell id="mhw9WGVYpKG5qw8w--Cm-58" value="updateResultView" style="rounded=1;whiteSpace=wrap;html=1;" vertex="1" parent="1">
          <mxGeometry x="-140" y="687.5" width="130" height="40" as="geometry" />
        </mxCell>
        <mxCell id="mhw9WGVYpKG5qw8w--Cm-79" style="edgeStyle=orthogonalEdgeStyle;rounded=0;orthogonalLoop=1;jettySize=auto;html=1;entryX=0.5;entryY=1;entryDx=0;entryDy=0;" edge="1" parent="1" source="mhw9WGVYpKG5qw8w--Cm-62" target="mhw9WGVYpKG5qw8w--Cm-58">
          <mxGeometry relative="1" as="geometry" />
        </mxCell>
        <mxCell id="mhw9WGVYpKG5qw8w--Cm-62" value="Обновление процентной ставки при смене программы" style="text;html=1;strokeColor=none;fillColor=none;align=center;verticalAlign=middle;whiteSpace=wrap;rounded=0;" vertex="1" parent="1">
          <mxGeometry x="-148.75" y="780" width="147.5" height="60" as="geometry" />
        </mxCell>
        <mxCell id="mhw9WGVYpKG5qw8w--Cm-69" style="edgeStyle=orthogonalEdgeStyle;rounded=0;orthogonalLoop=1;jettySize=auto;html=1;entryX=0.75;entryY=0;entryDx=0;entryDy=0;" edge="1" parent="1" source="mhw9WGVYpKG5qw8w--Cm-67" target="mhw9WGVYpKG5qw8w--Cm-28">
          <mxGeometry relative="1" as="geometry">
            <Array as="points">
              <mxPoint x="430" y="350" />
            </Array>
          </mxGeometry>
        </mxCell>
        <mxCell id="mhw9WGVYpKG5qw8w--Cm-67" value="utils" style="rounded=1;whiteSpace=wrap;html=1;" vertex="1" parent="1">
          <mxGeometry x="796.25" y="687.5" width="130" height="40" as="geometry" />
        </mxCell>
        <mxCell id="mhw9WGVYpKG5qw8w--Cm-82" style="edgeStyle=orthogonalEdgeStyle;rounded=0;orthogonalLoop=1;jettySize=auto;html=1;entryX=0.5;entryY=1;entryDx=0;entryDy=0;" edge="1" parent="1" source="mhw9WGVYpKG5qw8w--Cm-70" target="mhw9WGVYpKG5qw8w--Cm-67">
          <mxGeometry relative="1" as="geometry" />
        </mxCell>
        <mxCell id="mhw9WGVYpKG5qw8w--Cm-70" value="Изменение отображения процентной ставки на сайте&amp;nbsp;" style="text;html=1;strokeColor=none;fillColor=none;align=center;verticalAlign=middle;whiteSpace=wrap;rounded=0;" vertex="1" parent="1">
          <mxGeometry x="782.5" y="795" width="157.5" height="30" as="geometry" />
        </mxCell>
        <mxCell id="mhw9WGVYpKG5qw8w--Cm-77" value="&lt;h1&gt;calculatorMortage&lt;/h1&gt;&lt;p&gt;Краткое описание калькулятора ипотеки&lt;/p&gt;" style="text;html=1;strokeColor=none;fillColor=none;spacing=5;spacingTop=-20;whiteSpace=wrap;overflow=hidden;rounded=0;" vertex="1" parent="1">
          <mxGeometry x="30" y="30" width="245" height="120" as="geometry" />
        </mxCell>
        <mxCell id="mhw9WGVYpKG5qw8w--Cm-87" style="edgeStyle=orthogonalEdgeStyle;rounded=0;orthogonalLoop=1;jettySize=auto;html=1;" edge="1" parent="1" source="mhw9WGVYpKG5qw8w--Cm-83">
          <mxGeometry relative="1" as="geometry">
            <mxPoint x="413.75000000000045" y="860" as="targetPoint" />
          </mxGeometry>
        </mxCell>
        <mxCell id="mhw9WGVYpKG5qw8w--Cm-83" value="&lt;font style=&quot;font-size: 17px;&quot;&gt;util&lt;/font&gt;" style="rounded=0;whiteSpace=wrap;html=1;" vertex="1" parent="1">
          <mxGeometry x="20" y="959" width="787.5" height="210" as="geometry" />
        </mxCell>
      </root>
    </mxGraphModel>
  </diagram>
</mxfile>
